<svg aria-hidden="true" version="1.1" xmlns="http://www.w3.org/2000/svg" xmlns:xlink="http://www.w3.org/1999/xlink" x="0px" y="0px" viewBox="0 0 236.9 47.9" style="enable-background:new 0 0 236.9 47.9;" xml:space="preserve" width="149" height="30">
    <path fill="#1423DC" d="M66.7,8.7c4.9,0,9,3.8,9,8.3v29.1c0,0.9,0.8,1.6,1.7,1.5h6.1c0.9,0,1.7-0.6,1.7-1.5V17C85.1,7.6,76.9,0,66.7,0 H47.1c-0.9,0-1.6,0.8-1.5,1.7v44.3c0,0.9,0.6,1.7,1.5,1.7h6.5c0.9,0,1.6-0.8,1.5-1.7V8.7H66.7z M13.4,8.7h25c0.9,0,1.6-0.6,1.7-1.5 V1.5c0-0.9-0.8-1.5-1.6-1.5H13.2C6.2,0,0.4,5.2,0.4,11.7v24.2c0,6.5,5.7,11.8,12.8,11.8h25.2c0.9,0,1.6-0.6,1.7-1.5v-5.7 c0-0.9-0.8-1.5-1.7-1.5h-25c-1.8,0-3.3-1.4-3.4-3.2v-6.7H25c0.9,0,1.6-0.6,1.7-1.5V22c0-0.9-0.8-1.5-1.7-1.5H10v-8.8 C10,10.1,11.6,8.7,13.4,8.7z M236.4,31.2v-1.4c-0.5-5.3-6-9.3-11.7-9.3h-14.6c-2.4-0.1-4.3-2.1-4.2-4.5v-3.2 c0.1-2.4,2.1-4.3,4.5-4.2h19.9c0.7,0,1.3-0.4,1.6-1c0.1-0.2,0.1-0.3,0.1-0.5V1.5c0-0.9-0.8-1.6-1.7-1.5h-22.2 c-6.5,0-11.8,4.9-11.8,10.9v6.8c0,6.5,4.9,11.7,10.9,11.7h15.5c2.4,0.1,4.2,2.1,4.1,4.5v1.1c-0.1,2.4-2.1,4.3-4.5,4.2h-24.3 c-0.7,0-1.3,0.4-1.6,1.1c-0.1,0.2-0.1,0.3-0.1,0.5v5.6c0,0.9,0.8,1.6,1.7,1.5h26.7c6.5,0,11.7-4.9,11.7-10.9L236.4,31.2L236.4,31.2z M158.7,0H138c-0.9,0.1-1.6,0.8-1.5,1.7v28c0,0.9,0.6,1.7,1.5,1.7h6.5c0.9,0,1.6-0.8,1.5-1.7v-21h11.7c4.9,0,9,3.7,9,8.3v15.3 c0,4.6-4,6.7-9,6.7h-21.1v8.7h21.1c10.2,0,18.4-6,18.4-15.3V16.9C175.9,7.5,168.2-0.1,158.7,0z"></path>
    <path class="green" fill="#93C90E" d="M108.9,39c-4.9,0-9-3.7-9-8.3v-1.5h19.1c6.6,0,12-5,12-11.1v-7.1C131,5,125.7,0,119.1,0h-16.6 c-0.9,0-1.9,0-2.8,0.2c-5.3,1-9.1,5.6-9.2,10.9v4.2c0,0.9,0.6,1.7,1.5,1.7h6.5c0.9-0.1,1.6-0.8,1.5-1.7v-2.6c0.1-2.2,2-4,4.2-3.9 h13.1c2.2-0.1,4.1,1.6,4.2,3.9v4.2c-0.1,2.2-2,4-4.2,3.9H85.1v8.7h5.5v1.5c0,9.4,8.3,16.9,18.4,16.9h27.5v-8.7L108.9,39z"></path>
    <path fill="#1423DC" d="M191,30V14.1c0-0.9-0.6-1.7-1.5-1.7H183c-0.9,0-1.6,0.8-1.5,1.7V46c0,0.9,0.6,1.7,1.5,1.7h6.5 c0.9,0,1.6-0.8,1.5-1.7C191,46,191,30,191,30z M191,3.6V1.7c0-0.9-0.6-1.7-1.5-1.7H183c-0.9,0-1.6,0.8-1.5,1.7V7 c0,0.9,0.6,1.7,1.5,1.7h6.5c0.9,0,1.6-0.8,1.5-1.7V3.6z"></path>
</svg>