<svg version="1.1" id="Calque_1" xmlns="http://www.w3.org/2000/svg" xmlns:xlink="http://www.w3.org/1999/xlink" x="0px" y="0px" viewBox="0 0 363.6 40.5" style="enable-background:new 0 0 363.6 40.5;" xml:space="preserve">
<style type="text/css">
	.st0{fill:#555;mix-blend-mode:difference;}
</style>
<polygon class="st0" points="0,1.1 0,39.6 27.2,39.6 27.2,32.6 8,32.6 8,1.1 "/>
<path class="st0" d="M50.7,9.9L55.6,25h-9.8L50.7,9.9z M46.3,1.1L32.6,39.6H41l2.6-7.9h14.2l2.5,7.9H69L55.4,1.1H46.3z"/>
<g>
	<path class="st0" d="M116,9.1c-1-0.9-2.4-1.3-4.3-1.3h-7.2v11.3h7.2c1.8,0,3.3-0.5,4.3-1.4s1.5-2.4,1.5-4.4   C117.6,11.4,117.1,9.9,116,9.1 M122.2,22.9c-2.2,1.9-5.5,2.8-9.6,2.8h-8v13.8h-8V1.1h16.5c3.8,0,6.8,1,9.1,3c2.3,2,3.4,5,3.4,9.2   C125.6,17.8,124.4,21,122.2,22.9"/>
</g>
<polygon class="st0" points="134.7,1.1 134.7,39.6 161.9,39.6 161.9,32.6 142.7,32.6 142.7,1.1 "/>
<path class="st0" d="M185.4,9.9l4.9,15.1h-9.8L185.4,9.9z M180.9,1.1l-13.7,38.4h8.4l2.6-7.9h14.2l2.5,7.9h8.7L190,1.1H180.9z"/>
<polygon class="st0" points="228.2,1.1 220.6,17.9 212.6,1.1 203.1,1.1 216.4,25.1 216.4,39.6 224.5,39.6 224.5,25.1 237.3,1.1 "/>
<polygon class="st0" points="244.6,1.1 244.6,39.6 271.8,39.6 271.8,32.6 252.6,32.6 252.6,1.1 "/>
<rect x="279.2" y="1.1" class="st0" width="8" height="38.4"/>
<g>
	<path class="st0" d="M303.2,27.7c0.2,1.8,0.7,3.1,1.5,3.9c1.3,1.6,3.6,2.4,6.8,2.4c1.9,0,3.5-0.2,4.7-0.6c2.3-0.8,3.4-2.3,3.4-4.5   c0-1.3-0.6-2.3-1.7-2.9c-1.1-0.7-2.9-1.3-5.3-1.8l-4.2-0.9c-4.1-0.9-6.9-1.9-8.4-2.9c-2.6-1.8-3.9-4.5-3.9-8.3   c0-3.4,1.3-6.3,3.8-8.6s6.3-3.4,11.2-3.4c4.1,0,7.6,1.1,10.5,3.2s4.4,5.3,4.6,9.3h-7.7c-0.1-2.3-1.2-4-3.1-4.9   c-1.3-0.6-2.9-1-4.8-1c-2.1,0-3.8,0.4-5.1,1.3c-1.3,0.8-1.9,2-1.9,3.5c0,1.4,0.6,2.4,1.9,3.1c0.8,0.5,2.5,1,5.1,1.6l6.7,1.6   c3,0.7,5.2,1.6,6.6,2.8c2.3,1.8,3.4,4.4,3.4,7.8c0,3.5-1.4,6.4-4.1,8.7s-6.5,3.5-11.5,3.5c-5.1,0-9-1.1-11.9-3.4   c-2.9-2.3-4.3-5.4-4.3-9.4h7.7V27.7z"/>
</g>
<polygon class="st0" points="332.5,1.1 332.5,7.9 344,7.9 344,39.6 352.1,39.6 352.1,7.9 363.6,7.9 363.6,1.1 "/>
</svg>