<svg version="1.1" id="Layer_1" xmlns="http://www.w3.org/2000/svg" xmlns:xlink="http://www.w3.org/1999/xlink" x="0px" y="0px" viewBox="0 0 720 720" style="enable-background:new 0 0 720 720;" xml:space="preserve">
<style type="text/css">
	.st0{fill:#022941;}
	.st1{fill:#3DAE2B;}
	.st2{enable-background:new    ;}
	.st3{fill:#39B04A;}
	.st4{fill:none;stroke:#FED040;stroke-width:3.9018;stroke-miterlimit:10;}
</style>
<g>
	<path class="st0" d="M357.4,130.1L243.1,337.6l-0.2,118.1H188l0.2-118.1L70.5,130.1h62.2l83.1,147.5l79.1-147.5H357.4z"/>
</g>
<path class="st0" d="M579.9,268.4c-10.3-4.7-20.1-7.7-30.6-10.9c-11-3.5-22.5-7.4-32.3-13.1l-0.2-0.1l-0.2-0.1  c-13.5-8.8-18.4-26.6-11.2-40.6c5.4-10.7,15.5-16.6,28.6-16.6c3.6,0,6.6,0.4,8.3,0.7c0.2,0,0.4,0.1,0.5,0.1h0.9l1.3,0.3  c14.7,3.9,21.3,11.7,24,19.6h57.5c-4.1-36.2-30.5-65.4-68.2-74.4h-0.2c-8.2-2.1-16.4-3.2-24.5-3.2c-33.4,0-62.8,17.8-78.6,47.4  c-1.9,3.6-3.4,7.3-4.7,11c6.4,6.1,12.3,13.2,17.3,21.3c12.5,19.8,18.9,42.7,17.4,62.8c-0.4,5.6-1.2,11.2-2.4,16.8  c1.3,0.9,2.7,1.9,4.1,2.8c13.7,8.7,27.7,13.4,41.3,17.8l4.7,1.6c3.1,1.1,6,2.1,8.9,3c5,1.7,9.8,3.2,14.5,5.4l0.2,0.1  c21.3,10.7,24.5,28.1,24.5,37.5c0,6.3-1.8,27.4-25,37.2c-6.4,2.8-14.2,4.3-22.5,4.3c-11.2,0-21.6-2.7-29.1-7.7  c-9.7-5.9-16.7-11.2-23.4-19.8l-30.2,44.2c9,9.2,20.9,18.3,29.5,23.9c15.9,10.5,35.1,16,55.6,16c15.6,0,30.5-3.2,44.3-9.5  c35.7-16.2,57.9-50.2,57.9-88.6C637.9,318.2,616.3,284.9,579.9,268.4z"/>
<path class="st1" d="M450.8,209.8c-5.1-8.1-10.9-15.2-17.3-21.3c-8.3-7.9-17.5-13.9-27.2-17.7l57-79.7l13.2-19.2l-223.3-0.2  l29.9,47.7l101.7,0.1L332,205.9l0,0c6.8-2.5,14.2-3.8,21.9-3.8c35.6,0,64.5,28.9,64.5,64.5c0,2.7-0.2,5.3-0.5,7.8  c0,0.3-0.1,0.7-0.1,1c-0.1,0.6-0.2,1.2-0.3,1.7c-0.1,0.6-0.2,1.2-0.3,1.8c-0.1,0.3-0.1,0.7-0.2,1c-0.2,0.8-0.4,1.7-0.6,2.5  c0,0.1-0.1,0.2-0.1,0.3c-0.4,1.4-0.8,2.8-1.2,4.2c-3.5,10.5-9.5,19.7-17.5,27c-0.2,0.2-0.5,0.4-0.7,0.6c-0.3,0.2-0.5,0.5-0.8,0.7  c-11.3,9.8-26,15.7-42.2,15.7c-13.5,0-26-4.1-36.3-11.2c-9.1-4.9-16.2-11.1-24.2-20.7l-7.2-8.5L256.5,343l3.9,3.3  c11.1,9.6,34.1,29.5,66.1,37.7c9.1,2.3,18.3,3.5,27.5,3.5c4.3,0,8.5-0.3,12.7-0.8c28.5-3.4,53.6-17.5,72.4-40.7  c13.1-16.1,22.4-36.1,26.7-56.7c1.2-5.6,2-11.2,2.4-16.8C469.6,252.4,463.3,229.6,450.8,209.8z"/>
<g class="st2">
	<path class="st3" d="M87.8,608.2v-29.9h-0.1l-13-57.4h11.8l7.2,34.3l7.3-34.3h11.8l-13,57.4h-0.1v29.9H87.8z"/>
	<path class="st3" d="M157.4,605.9c-3.1,2.5-6.8,3.7-11.2,3.7c-4.4,0-8.1-1.2-11.3-3.7c-3.1-2.5-4.6-5.5-4.6-9.1v-64.2   c0-3.5,1.5-6.6,4.6-9.1c3.2-2.5,6.9-3.7,11.3-3.7c4.4,0,8.1,1.2,11.2,3.7c3.2,2.5,4.7,5.5,4.7,9.1v64.2   C162.1,600.4,160.5,603.4,157.4,605.9z M150.1,531.5c0-0.9-0.4-1.6-1.1-2.2c-0.8-0.7-1.7-1-2.8-1c-1.1,0-2,0.3-2.8,1   c-0.8,0.6-1.1,1.3-1.1,2.2V598c0,0.9,0.4,1.6,1.1,2.2c0.8,0.6,1.7,1,2.8,1c1.1,0,2-0.4,2.8-1c0.8-0.6,1.1-1.3,1.1-2.2V531.5z"/>
	<path class="st3" d="M201.3,520.9h11.9v75.8c0,3.5-1.5,6.6-4.7,9.1c-3.1,2.5-6.8,3.7-11.2,3.7c-4.3,0-8-1.2-11.2-3.7   c-3.1-2.5-4.6-5.5-4.6-9.1v-75.8h11.9v77c0,0.9,0.4,1.6,1.2,2.2c0.7,0.6,1.6,1,2.7,1c1.1,0,2-0.4,2.8-1c0.8-0.6,1.1-1.3,1.1-2.2   V520.9z"/>
	<path class="st3" d="M253.9,608.3c0-2.9,0-28.6,0-31.7c0-3.3-1.8-4.5-7.8-4.4v36.1c-7.3,0-11.9,0-11.9,0v-87.4c0,0,7.2,0,15.9,0   c5.1,0,8.5,1,11.6,3.4c3.2,2.4,4.3,5.5,4.3,9v27.1c0,5.9-4.1,7-4.1,7s4.1,1.8,4.1,7.5v33.4H253.9z M253.9,532.3   c0-0.9-0.4-1.6-1.1-2.2c-0.8-0.6-1.7-0.9-2.8-0.9h-3.9V563c5.4,0,7.8-0.1,7.8-4.1C253.8,551.7,253.9,532.3,253.9,532.3z"/>
	<path class="st3" d="M318.1,524.1c3.1-2.9,6.8-4.4,11.1-4.4s8,1.5,11.1,4.4c3.1,2.9,4.6,6.4,4.6,10.5v20c0,3.8-1.3,7.2-4.1,9.9   c2.8,2.9,4.1,6.3,4.1,10.1v20.1c0,4.1-1.5,7.6-4.6,10.5c-3.1,3-6.8,4.4-11.1,4.4s-8-1.4-11.1-4.4c-3.1-2.9-4.6-6.4-4.6-10.5v-18.6   h11.6V596c0,1.1,0.5,2.1,1.2,2.9s1.7,1.1,2.9,1.1c1.1,0,2.1-0.3,3-1.1c0.8-0.8,1.1-1.7,1.1-2.9v-22.7c0-3.2-4.9-3.8-4.9-3.8v-9.6   c0,0,2.6-0.4,3.6-1.2c0.9-0.8,1.2-1.6,1.2-2.8v-22.7c0-1.1-0.4-2-1.1-2.8c-0.9-0.8-1.8-1.1-3-1.1c-1.1,0-2.1,0.4-2.9,1.1   s-1.2,1.7-1.2,2.8v22.2h-11.5c0-0.2-0.1-7.2-0.1-20.8C313.5,530.5,315,527,318.1,524.1z"/>
</g>
<g class="st2">
	<path class="st3" d="M377,568.6c0-1.7,0-16.7,0-18.5c0-1.9-1.1-2.6-4.6-2.6v21.1c-4.2,0-7,0-7,0v-50.9c0,0,4.2,0,9.2,0   c3,0,5,0.6,6.7,2c1.8,1.4,2.5,3.2,2.5,5.2v15.8c0,3.5-2.4,4.1-2.4,4.1s2.4,1.1,2.4,4.3v19.4H377z M377,524.3c0-0.5-0.2-0.9-0.7-1.3   c-0.4-0.3-1-0.5-1.6-0.5h-2.3v19.7c3.1,0,4.6-0.1,4.6-2.4C377,535.6,377,524.3,377,524.3z"/>
	<path class="st3" d="M404.3,568.6c-5.1,0-9.2,0-9.2,0v-7.3v-36.4v-7.2c0,0,3.7,0,9.2,0c3.3,0,4.9,0.4,6.7,1.9   c1.8,1.4,2.6,3.3,2.6,5.3v9.8v16.8v9.8c0,2-0.8,3.8-2.6,5.3C409.2,568,407.3,568.6,404.3,568.6z M402,563.7h2.3   c0.7,0,1.2-0.2,1.7-0.6c0.4-0.3,0.6-0.7,0.6-1.2v-27.3v-10.4c0-0.5-0.2-0.9-0.6-1.2c-0.5-0.4-1-0.6-1.7-0.6H402V563.7z"/>
</g>
<g class="st2">
	<path class="st3" d="M481.4,606.2c-3,2.3-6.6,3.3-10.7,3.3s-7.7-1.1-10.8-3.3c-3-2.2-4.7-5-5.1-8.2v-22.2l12-0.1v22.2   c0,0.9,0.4,1.6,1.1,2.2c0.8,0.6,1.6,1,2.8,1c1.1,0,1.9-0.4,2.8-1c0.8-0.6,1.1-1.3,1.1-2.2v-25c0-2.1-1.2-3.2-3.5-3.2h-0.8   c-4.5,0-8.3-1.4-11.5-4.2c-2.7-2.5-4-5.4-4-8.6v-24.3c0-3.5,1.5-6.5,4.6-9c3.2-2.6,6.9-3.8,11.3-3.8c4.3,0,8.1,1.2,11.2,3.8   c3.1,2.5,4.7,5.4,4.7,9V550h-12v-18.5c0-1-0.4-1.7-1.1-2.3c-0.9-0.6-1.7-1-2.8-1c-1.1,0-2,0.4-2.8,1c-0.8,0.6-1.1,1.3-1.1,2.3v24.4   c0,0.9,0.3,1.6,1,2.2c0.7,0.7,1.5,1,2.6,1h2.2c3.3,0,6.1,0.7,8.3,2.1c1.8,1.1,3.2,2.8,4.2,4.8c1.1,2.3,1.6,4.6,1.5,6.9v25v0.1   C486.2,601.2,484.5,604,481.4,606.2z"/>
	<path class="st3" d="M537,533.4v27.1c0,9.8-12,10.5-19.9,10.5v37.2c-7.2,0-11.9,0-11.9,0v-87.3c0,0,7.1,0,15.8,0   c5.2,0,8.4,0.9,11.5,3.3C535.6,526.7,537,529.9,537,533.4z M525,532.5c0-0.9-0.4-1.8-1.1-2.4c-0.9-0.6-1.7-0.9-2.9-0.9h-3.9V563   c5.4,0,7.8-0.2,7.8-4.1C524.9,549.2,525,544.1,525,532.5z"/>
	<path class="st3" d="M584,605.9c-3.1,2.5-6.8,3.7-11.2,3.7c-4.4,0-8.1-1.2-11.3-3.7c-3.1-2.5-4.6-5.5-4.6-9.1v-64.2   c0-3.5,1.5-6.6,4.6-9.1c3.2-2.5,6.9-3.7,11.3-3.7c4.4,0,8.1,1.2,11.2,3.7c3.2,2.5,4.7,5.5,4.7,9.1v64.2   C588.7,600.4,587.2,603.4,584,605.9z M576.7,531.5c0-0.9-0.4-1.6-1.1-2.2c-0.8-0.7-1.7-1-2.8-1c-1.1,0-2,0.3-2.8,1   c-0.8,0.6-1.1,1.3-1.1,2.2V598c0,0.9,0.4,1.6,1.1,2.2c0.8,0.6,1.7,1,2.8,1c1.1,0,2-0.4,2.8-1c0.8-0.6,1.1-1.3,1.1-2.2V531.5z"/>
	<path class="st3" d="M613.5,608.3v-77.9h-7.8v-9.5H633v9.5h-7.8v77.9H613.5z"/>
</g>
<line class="st4" x1="74.7" y1="489.7" x2="635.3" y2="489.7"/>
<line class="st4" x1="74.7" y1="637" x2="635.3" y2="637"/>
</svg>